<?xml version="1.0" standalone="no"?>
<!DOCTYPE svg PUBLIC "-//W3C//DTD SVG 20010904//EN"
 "http://www.w3.org/TR/2001/REC-SVG-20010904/DTD/svg10.dtd">
<svg version="1.0" xmlns="http://www.w3.org/2000/svg"
 width="4096.000000pt" height="4096.000000pt" viewBox="0 0 4096.000000 4096.000000"
 preserveAspectRatio="xMidYMid meet">
<metadata>
Created by potrace 1.11, written by Peter Selinger 2001-2013
</metadata>
<g transform="translate(0.000000,4096.000000) scale(0.100000,-0.100000)"
fill="#000000" stroke="none">
<path d="M28477 39144 c-1 -1 -112 -5 -247 -9 -235 -7 -355 -12 -355 -15 0 0
-31 -3 -70 -5 -101 -5 -234 -15 -277 -21 -21 -3 -66 -7 -100 -10 -88 -6 -146
-12 -196 -19 -24 -4 -62 -8 -86 -10 -23 -3 -60 -7 -82 -10 -21 -3 -57 -8 -79
-11 -80 -9 -111 -13 -145 -19 -34 -6 -112 -16 -137 -17 -7 -1 -13 -4 -13 -7 0
-3 -15 -7 -33 -8 -28 -2 -49 -5 -117 -16 -8 -1 -21 -6 -27 -10 -7 -5 -13 -4
-13 2 0 7 -8 7 -25 1 -27 -10 -57 -17 -115 -25 -19 -3 -46 -8 -60 -11 -59 -14
-76 -17 -97 -17 -13 -1 -23 -4 -23 -7 0 -3 -8 -6 -17 -6 -17 -1 -40 -5 -103
-18 -25 -6 -228 -52 -265 -61 -11 -3 -29 -7 -40 -9 -11 -3 -58 -15 -105 -26
-47 -12 -94 -23 -105 -26 -118 -23 -804 -235 -831 -255 -6 -5 -13 -7 -15 -4
-3 2 -41 -9 -85 -26 -43 -16 -90 -32 -104 -35 -13 -3 -29 -9 -35 -13 -5 -5
-31 -14 -57 -22 -27 -7 -48 -17 -48 -22 0 -4 -4 -6 -8 -3 -5 3 -22 -2 -38 -10
-16 -9 -29 -15 -29 -14 0 1 -13 -4 -30 -10 -16 -7 -34 -13 -40 -14 -5 -1 -20
-8 -32 -14 -13 -7 -23 -10 -23 -7 0 3 -15 -2 -32 -12 -18 -9 -37 -18 -43 -19
-13 -2 -410 -173 -490 -210 -33 -16 -62 -29 -65 -29 -3 -1 -58 -27 -122 -58
-65 -31 -122 -57 -128 -57 -5 0 -10 -4 -10 -10 0 -5 -6 -10 -14 -10 -7 0 -46
-18 -87 -41 -41 -22 -75 -40 -77 -39 -6 2 -68 -34 -74 -44 -4 -6 -8 -8 -8 -4
0 4 -15 -1 -34 -11 -19 -11 -78 -43 -132 -72 -55 -29 -128 -70 -163 -91 -34
-21 -65 -38 -67 -38 -2 0 -86 -50 -186 -110 -200 -121 -198 -119 -278 -170
-31 -19 -63 -39 -72 -45 -9 -5 -47 -31 -85 -56 -81 -55 -150 -100 -172 -114
-9 -5 -18 -13 -21 -16 -3 -3 -21 -17 -41 -30 -86 -57 -323 -227 -364 -261 -5
-5 -64 -49 -130 -99 -66 -50 -122 -94 -125 -98 -3 -3 -23 -19 -45 -36 -22 -16
-69 -54 -106 -85 -36 -30 -86 -71 -110 -92 -24 -20 -57 -48 -74 -63 -16 -14
-45 -38 -64 -53 -19 -15 -46 -38 -60 -52 -14 -14 -59 -54 -100 -90 -41 -36
-80 -71 -88 -78 -7 -8 -17 -12 -22 -10 -8 3 -136 115 -188 166 -13 12 -28 22
-34 22 -6 0 -7 5 -4 10 3 6 1 10 -4 10 -10 0 -39 22 -85 65 -6 6 -51 44 -101
85 -113 94 -108 90 -183 150 -35 28 -70 56 -77 63 -7 6 -23 19 -35 27 -13 8
-32 23 -42 33 -10 9 -21 17 -24 17 -3 0 -31 20 -62 45 -69 55 -64 51 -132 100
-30 22 -59 43 -65 47 -59 47 -148 108 -155 108 -6 0 -10 3 -10 8 0 4 -28 25
-63 47 -34 22 -64 42 -67 46 -3 3 -39 28 -80 55 -41 26 -76 52 -78 56 -2 5 -9
8 -17 8 -7 0 -18 7 -25 15 -7 8 -16 13 -20 10 -4 -3 -10 1 -13 8 -3 6 -22 21
-43 32 -22 11 -48 28 -58 38 -11 9 -26 17 -33 17 -7 0 -13 3 -13 8 0 4 -10 12
-23 18 -12 6 -69 40 -127 76 -291 179 -935 528 -962 520 -5 -1 -8 2 -8 7 0 5
-10 13 -22 17 -12 3 -77 33 -146 65 -68 33 -125 59 -127 59 -2 0 -36 15 -77
34 -40 18 -118 52 -173 76 -55 23 -113 48 -130 55 -72 32 -242 97 -260 101
-11 2 -21 8 -23 14 -2 5 -12 10 -21 10 -16 0 -74 20 -146 51 -29 12 -221 78
-280 96 -27 8 -56 20 -62 25 -7 6 -13 8 -13 4 0 -3 -36 7 -80 23 -44 17 -83
30 -85 30 -3 0 -42 11 -88 25 -171 52 -354 105 -417 120 -8 3 -89 23 -180 46
-91 23 -172 44 -181 45 -9 2 -33 8 -52 13 -20 6 -38 8 -41 5 -3 -3 -11 -1 -18
5 -7 5 -29 12 -48 15 -19 3 -57 10 -85 17 -27 6 -61 14 -75 16 -14 2 -38 7
-55 11 -16 3 -39 7 -50 9 -11 2 -31 5 -45 8 -70 15 -131 27 -170 32 -40 5 -75
12 -75 14 0 2 -9 3 -90 14 -22 3 -40 5 -40 6 0 3 -42 11 -80 15 -22 2 -71 9
-110 15 -38 6 -92 13 -120 16 -51 5 -90 11 -90 14 0 1 -20 3 -45 6 -25 2 -58
5 -75 7 -57 8 -210 22 -222 20 -7 0 -13 2 -13 6 0 3 -21 6 -48 7 -44 1 -150 8
-291 20 -371 31 -1123 36 -1516 10 -33 -3 -103 -7 -155 -10 -52 -3 -115 -8
-140 -10 -25 -3 -81 -8 -125 -11 -44 -2 -91 -7 -105 -9 -14 -3 -56 -7 -95 -11
-38 -3 -83 -8 -100 -11 -16 -2 -52 -6 -80 -9 -27 -2 -50 -5 -50 -6 0 0 -11 -2
-25 -4 -64 -7 -130 -16 -184 -25 -32 -5 -63 -7 -67 -4 -5 3 -9 1 -9 -4 0 -5
-6 -9 -12 -9 -25 -1 -123 -13 -148 -19 -14 -3 -34 -7 -45 -8 -11 -2 -38 -6
-60 -10 -23 -3 -52 -9 -65 -11 -14 -3 -38 -8 -55 -11 -16 -2 -41 -7 -55 -9
-30 -6 -59 -11 -127 -25 -28 -6 -61 -12 -72 -13 -12 -1 -21 -4 -21 -7 0 -3
-13 -6 -29 -7 -15 -1 -66 -11 -112 -22 -46 -11 -95 -23 -109 -25 -14 -3 -35
-7 -48 -10 -12 -4 -30 -8 -40 -10 -9 -3 -46 -12 -82 -21 -36 -8 -72 -17 -80
-19 -8 -2 -35 -9 -60 -16 -25 -7 -52 -13 -60 -15 -15 -3 -219 -61 -380 -108
-97 -29 -307 -96 -392 -126 -31 -10 -59 -17 -62 -14 -3 4 -6 1 -6 -5 0 -6 -15
-14 -32 -17 -18 -4 -44 -12 -58 -18 -30 -13 -28 -12 -65 -22 -16 -4 -36 -12
-42 -18 -7 -5 -13 -6 -13 -3 0 4 -10 1 -22 -6 -13 -6 -27 -13 -33 -14 -29 -6
-111 -40 -117 -49 -4 -5 -8 -7 -8 -3 0 4 -20 -2 -45 -13 -25 -11 -54 -22 -63
-24 -15 -4 -174 -67 -247 -100 -16 -7 -64 -27 -105 -45 -132 -58 -234 -104
-415 -191 -60 -29 -112 -53 -115 -54 -3 0 -30 -14 -60 -30 -30 -16 -57 -29
-60 -30 -3 0 -23 -10 -45 -22 -22 -12 -75 -39 -118 -61 -43 -22 -84 -46 -92
-52 -8 -7 -15 -9 -15 -5 0 5 -8 2 -17 -6 -10 -8 -31 -21 -48 -30 -102 -55
-168 -92 -315 -179 -91 -53 -201 -120 -245 -147 -44 -27 -91 -56 -104 -64 -14
-8 -34 -22 -45 -31 -11 -10 -26 -18 -33 -18 -7 0 -13 -4 -13 -10 0 -5 -5 -10
-11 -10 -17 0 -597 -399 -664 -457 -5 -5 -37 -29 -70 -53 -33 -25 -62 -47 -65
-50 -3 -4 -23 -19 -45 -36 -22 -16 -46 -34 -55 -41 -8 -7 -42 -34 -75 -60 -33
-27 -69 -56 -80 -65 -45 -38 -183 -153 -229 -192 -72 -60 -127 -107 -157 -136
-15 -14 -55 -50 -90 -80 -34 -30 -79 -70 -98 -88 -20 -19 -92 -87 -161 -151
-69 -65 -156 -146 -195 -182 -38 -35 -107 -101 -153 -146 -46 -45 -96 -92
-111 -106 -45 -41 -332 -339 -411 -426 -41 -46 -86 -95 -100 -109 -69 -72
-325 -374 -434 -512 -42 -52 -81 -102 -88 -110 -7 -8 -26 -32 -42 -55 -16 -22
-32 -42 -35 -45 -4 -3 -66 -86 -139 -185 -73 -99 -139 -188 -147 -198 -8 -9
-15 -21 -15 -25 0 -5 -8 -17 -18 -28 -29 -34 -62 -83 -62 -94 0 -5 -4 -10 -8
-10 -5 0 -15 -12 -23 -27 -8 -16 -17 -30 -20 -33 -8 -6 -162 -241 -168 -255
-2 -5 -13 -23 -25 -40 -12 -16 -25 -37 -31 -47 -5 -10 -32 -54 -60 -99 -27
-45 -57 -95 -66 -110 -9 -16 -21 -34 -26 -41 -9 -12 -37 -61 -89 -158 -11 -19
-21 -37 -24 -40 -6 -6 -13 -18 -76 -136 -26 -49 -52 -91 -56 -92 -4 -2 -6 -8
-2 -13 3 -5 0 -9 -5 -9 -6 0 -11 -6 -11 -12 0 -14 -8 -30 -58 -120 -18 -31
-32 -64 -32 -72 0 -8 -4 -16 -9 -18 -16 -6 -230 -460 -350 -741 -62 -146 -64
-151 -63 -159 1 -5 -2 -8 -6 -8 -5 0 -9 -6 -9 -12 0 -11 -64 -177 -106 -278
-5 -14 -11 -31 -13 -38 -1 -8 -6 -21 -10 -30 -68 -163 -325 -973 -348 -1102
-2 -14 -5 -25 -6 -25 -1 0 -3 -7 -5 -15 -2 -8 -15 -62 -30 -120 -14 -58 -28
-114 -30 -125 -2 -11 -4 -20 -5 -20 -2 0 -5 -16 -15 -65 -10 -50 -13 -65 -15
-65 -1 0 -3 -9 -5 -20 -1 -11 -13 -67 -25 -125 -29 -144 -29 -140 -34 -158 -6
-18 -18 -96 -19 -124 -1 -10 -4 -18 -7 -18 -3 0 -6 -8 -7 -17 -3 -30 -12 -97
-16 -118 -3 -11 -8 -40 -12 -65 -4 -25 -9 -52 -10 -61 -2 -9 -6 -40 -10 -70
-4 -30 -9 -57 -11 -60 -2 -3 -6 -30 -8 -60 -3 -30 -9 -83 -15 -119 -13 -79
-20 -140 -26 -201 -2 -25 -8 -81 -14 -125 -5 -43 -13 -115 -17 -159 -3 -44 -8
-93 -9 -110 -2 -16 -6 -70 -10 -120 -4 -49 -8 -110 -10 -135 -26 -342 -26
-1282 0 -1550 1 -19 6 -82 10 -140 3 -58 8 -118 10 -135 2 -16 7 -66 10 -110
4 -44 9 -96 11 -115 3 -19 7 -60 9 -90 2 -30 5 -55 5 -55 1 0 3 -14 5 -31 2
-16 6 -48 9 -70 10 -57 20 -140 31 -229 2 -16 4 -30 5 -30 1 0 3 -11 5 -25 3
-24 12 -94 20 -150 2 -14 4 -25 5 -25 2 0 7 -27 14 -73 3 -22 7 -51 10 -64 7
-29 16 -85 20 -119 2 -15 6 -31 9 -36 5 -8 9 -32 22 -123 1 -8 5 -22 8 -30 3
-8 9 -33 13 -55 4 -22 8 -44 9 -50 2 -5 5 -23 9 -40 3 -16 12 -59 21 -95 8
-36 17 -74 20 -85 9 -47 21 -97 35 -150 6 -22 12 -49 14 -60 2 -11 4 -20 5
-20 3 0 7 -15 16 -60 9 -39 11 -47 17 -65 3 -8 29 -100 58 -205 67 -238 228
-733 283 -865 5 -14 11 -29 13 -35 1 -5 8 -23 15 -40 6 -16 13 -34 15 -40 1
-5 10 -28 19 -49 9 -22 19 -49 21 -60 2 -11 9 -23 16 -28 7 -4 9 -8 4 -8 -5 0
-4 -6 2 -12 6 -7 10 -15 10 -18 0 -21 16 -60 25 -60 6 0 7 -3 4 -7 -4 -3 -2
-12 4 -20 6 -7 9 -13 6 -13 -3 0 8 -30 24 -67 17 -38 35 -79 41 -93 6 -14 18
-38 26 -55 9 -16 15 -31 14 -33 -1 -1 12 -32 29 -70 17 -37 32 -72 33 -78 1
-7 7 -18 13 -25 6 -8 23 -43 38 -78 21 -51 127 -269 184 -379 6 -12 15 -30 19
-39 5 -10 32 -61 60 -113 27 -52 61 -115 74 -140 12 -25 26 -46 31 -48 4 -2 7
-12 7 -23 0 -10 5 -19 10 -19 6 0 10 -4 10 -8 0 -21 336 -584 352 -590 4 -2 8
-8 8 -13 0 -5 53 -89 118 -187 114 -171 138 -205 245 -357 68 -95 284 -383
316 -421 14 -16 37 -45 51 -64 28 -37 69 -89 85 -106 5 -6 21 -25 35 -43 14
-18 35 -44 48 -59 13 -15 55 -65 95 -112 39 -47 79 -92 87 -100 8 -8 44 -49
80 -90 36 -41 74 -84 85 -96 11 -12 54 -58 95 -104 41 -45 89 -97 105 -114 34
-36 215 -231 296 -320 30 -32 68 -73 84 -91 17 -17 71 -76 120 -130 50 -54
103 -112 119 -129 15 -17 69 -75 120 -130 50 -55 112 -121 137 -148 26 -26 45
-48 44 -48 -2 0 16 -19 38 -43 33 -34 151 -161 242 -261 6 -6 42 -45 80 -86
39 -42 115 -124 170 -184 55 -60 117 -127 138 -150 21 -23 71 -76 109 -119 39
-42 92 -99 117 -126 25 -27 84 -91 131 -142 47 -51 103 -112 125 -135 22 -23
74 -79 115 -124 41 -45 89 -97 105 -115 17 -17 77 -83 135 -146 58 -62 119
-128 135 -145 17 -18 64 -69 105 -114 41 -45 89 -97 105 -114 17 -18 73 -79
125 -136 52 -57 111 -121 130 -141 19 -20 73 -78 120 -129 47 -51 103 -112
125 -135 22 -23 58 -62 79 -86 22 -24 83 -91 137 -149 53 -58 111 -121 129
-140 18 -19 76 -82 130 -140 148 -158 170 -183 170 -193 0 -4 4 -5 10 -2 5 3
10 3 10 -2 0 -4 13 -22 28 -39 31 -35 200 -219 247 -268 17 -18 71 -76 120
-130 50 -54 108 -117 130 -141 22 -23 74 -80 115 -125 41 -45 95 -104 120
-130 25 -26 86 -92 135 -145 50 -54 106 -115 125 -135 19 -21 69 -75 110 -120
41 -46 92 -101 114 -124 21 -22 79 -86 130 -140 50 -55 108 -118 129 -140 22
-23 71 -76 110 -120 40 -43 92 -100 117 -126 25 -26 83 -90 130 -141 47 -50
108 -116 135 -145 28 -29 79 -86 115 -125 36 -40 89 -97 117 -127 29 -30 53
-56 53 -58 0 -2 30 -35 68 -75 84 -89 124 -132 237 -255 50 -54 104 -112 120
-130 17 -18 66 -71 110 -119 44 -48 94 -101 110 -119 17 -18 56 -62 89 -97
114 -125 242 -262 296 -320 30 -33 84 -91 120 -130 109 -118 142 -154 350
-379 14 -15 59 -64 100 -109 41 -45 100 -109 130 -141 30 -33 89 -96 130 -141
41 -45 84 -91 95 -103 27 -29 247 -268 260 -282 6 -6 56 -60 112 -120 56 -60
110 -119 120 -130 10 -12 65 -72 123 -134 58 -62 116 -125 130 -140 163 -177
203 -220 231 -251 19 -20 56 -60 83 -90 88 -97 240 -260 293 -316 29 -30 53
-56 53 -58 0 -2 19 -23 43 -48 23 -24 80 -86 127 -137 47 -51 101 -110 120
-130 44 -48 209 -225 246 -266 16 -17 70 -76 121 -130 50 -55 100 -108 110
-120 10 -12 65 -72 123 -134 58 -62 118 -127 133 -144 16 -17 71 -76 122 -131
51 -55 104 -113 119 -130 39 -42 184 -200 226 -245 34 -36 196 -211 248 -268
15 -16 68 -73 118 -128 51 -54 106 -115 124 -134 18 -19 76 -82 130 -140 54
-58 115 -124 135 -147 20 -23 65 -72 99 -108 35 -36 62 -65 60 -65 -1 0 17
-20 39 -43 23 -24 85 -90 137 -147 52 -57 115 -125 140 -151 25 -27 74 -80
110 -120 36 -39 84 -91 108 -116 23 -24 42 -49 42 -54 0 -6 5 -7 10 -4 6 3 10
2 10 -3 0 -5 19 -29 43 -54 44 -48 228 -246 262 -283 134 -146 187 -204 225
-244 25 -27 88 -95 140 -152 52 -56 118 -128 146 -158 29 -31 66 -72 84 -91
62 -67 215 -233 257 -276 22 -24 40 -44 39 -44 -2 0 20 -24 48 -54 28 -29 89
-95 136 -146 47 -51 99 -107 115 -125 39 -41 236 -252 269 -288 14 -15 26 -24
26 -20 0 4 9 -5 20 -22 11 -16 20 -27 20 -23 0 3 17 -10 38 -31 31 -32 73 -68
217 -190 11 -9 56 -43 100 -76 44 -33 82 -62 85 -65 3 -3 17 -11 32 -19 15 -8
36 -21 46 -30 10 -9 27 -21 38 -28 10 -7 62 -38 114 -70 52 -32 97 -61 98 -65
2 -5 12 -8 22 -8 10 0 22 -5 25 -10 6 -10 282 -149 351 -177 16 -7 46 -19 66
-28 21 -8 40 -15 43 -15 3 0 18 -6 34 -14 16 -9 31 -12 35 -9 3 4 6 1 6 -5 0
-7 9 -12 19 -12 11 0 22 -4 26 -10 3 -5 12 -7 20 -3 8 3 15 0 15 -6 0 -6 5
-11 12 -11 6 0 62 -16 123 -35 62 -20 121 -37 131 -39 11 -2 44 -11 74 -20 53
-15 93 -24 135 -31 11 -2 21 -4 23 -5 4 -4 15 -6 67 -14 28 -4 57 -10 65 -13
8 -3 26 -7 40 -9 31 -4 81 -11 140 -19 25 -3 63 -8 85 -10 22 -2 65 -6 95 -9
30 -4 94 -7 142 -9 49 -1 88 -5 88 -8 0 -4 16 -3 35 1 20 4 38 4 41 -1 3 -5 8
-7 12 -5 4 2 77 7 162 10 85 4 184 9 220 12 36 4 77 7 93 8 15 0 27 3 27 6 0
3 17 6 38 7 37 2 74 6 147 20 22 4 48 8 58 9 9 1 18 2 20 4 1 1 11 3 22 5 37
5 88 16 94 19 3 2 24 7 46 11 57 9 59 10 70 16 6 4 28 10 50 14 43 9 51 11 63
15 4 2 12 4 17 5 6 2 13 4 18 5 4 1 12 4 17 5 6 1 12 4 15 5 3 1 10 4 15 5 6
1 11 3 13 5 1 1 11 4 22 6 28 7 31 8 90 30 11 4 25 8 30 10 19 4 170 62 240
92 93 39 305 143 380 186 33 19 71 41 85 48 128 71 371 238 495 340 200 166
348 313 676 672 30 33 81 88 115 123 33 34 59 63 57 63 -2 0 13 17 34 39 21
21 77 81 124 132 47 52 99 108 115 125 16 17 70 75 119 129 50 53 104 112 120
130 17 18 64 69 105 114 41 45 95 104 120 130 44 46 171 184 281 305 30 32 80
86 112 119 31 33 57 61 57 63 0 1 15 18 33 36 35 37 191 207 278 302 30 32 70
75 89 95 19 21 76 81 125 136 50 54 117 126 151 161 33 35 59 64 57 64 -2 0
13 17 34 39 21 21 76 80 123 131 47 50 99 107 115 124 17 18 66 72 110 120 44
47 103 110 130 140 28 29 88 95 135 146 105 116 188 206 261 282 30 32 53 58
51 58 -3 0 8 12 24 27 16 15 28 31 26 35 -1 4 4 8 12 8 8 0 16 4 18 9 3 7 92
107 203 227 29 30 193 208 245 264 14 15 64 70 112 121 48 52 95 104 105 115
10 12 66 73 125 135 58 63 118 128 133 144 15 17 73 79 129 140 55 60 118 127
138 150 21 22 54 58 75 81 93 100 254 274 304 328 30 32 68 73 84 91 17 18 64
70 105 115 41 45 93 101 115 124 60 64 238 256 255 276 24 27 171 187 220 239
42 45 195 210 250 270 14 16 68 75 122 132 53 57 108 118 123 134 52 57 190
207 230 249 205 218 305 329 305 339 0 4 7 7 15 7 8 0 15 4 15 10 0 5 15 25
33 43 17 19 68 73 112 121 44 49 96 105 115 125 19 21 82 89 140 152 58 62
124 133 148 156 23 24 42 46 42 48 0 2 21 27 48 54 26 27 79 84 117 126 39 42
86 93 105 114 19 20 80 86 135 146 111 121 111 121 245 265 52 57 103 112 113
124 18 20 167 181 262 283 28 29 75 80 105 113 30 34 75 82 100 109 25 26 83
89 130 140 113 124 298 324 390 422 14 15 61 66 105 114 44 48 97 106 118 129
21 22 68 74 105 114 37 39 87 94 112 121 69 74 222 240 250 270 80 88 202 221
250 271 30 32 93 100 140 151 47 50 97 105 113 122 15 16 27 33 27 39 0 5 5 6
10 3 6 -3 10 -2 10 3 0 6 35 47 78 93 42 45 91 97 107 114 17 18 71 76 120
130 50 54 109 118 133 143 23 24 42 46 42 48 0 3 100 110 193 206 26 27 47 51
47 53 0 1 19 23 43 47 45 46 119 126 257 278 47 51 99 107 115 125 35 37 207
223 248 269 16 17 72 78 125 135 54 57 108 116 122 131 14 15 66 72 117 126
50 55 101 110 113 124 11 13 67 74 124 135 57 60 116 124 130 140 24 26 77 84
216 235 68 73 235 254 270 291 19 21 60 65 90 99 30 33 83 90 117 126 34 35
61 64 59 64 -1 0 21 24 48 53 28 29 87 93 131 141 44 48 100 109 125 135 25
26 81 87 125 135 44 49 109 119 145 157 36 38 64 69 62 69 -1 0 7 11 20 24 35
35 228 243 289 310 30 33 79 86 111 118 31 32 55 58 53 58 -3 0 12 17 33 38
20 21 62 67 92 101 30 34 64 73 75 85 43 49 125 143 160 186 21 25 41 47 46
50 4 3 18 20 31 37 26 37 197 253 213 269 5 6 19 23 30 39 11 15 32 41 48 58
15 18 27 37 27 43 0 7 4 14 8 16 5 2 32 35 60 73 29 39 56 75 60 80 12 15 95
131 109 152 7 10 36 52 66 93 128 182 477 731 494 778 4 9 10 19 13 22 4 3 26
41 50 85 23 44 47 85 51 91 5 6 24 41 43 78 19 37 40 74 46 82 7 8 9 14 4 14
-5 0 -4 4 2 8 6 4 20 25 31 47 11 22 72 144 135 270 64 127 126 253 138 280
13 28 47 104 77 170 30 66 56 125 57 130 1 6 10 25 19 42 10 18 18 35 18 38 3
23 13 45 20 45 5 0 8 3 8 8 -1 4 0 10 1 15 1 4 4 12 5 17 1 6 4 12 5 15 1 3 3
8 4 13 1 4 12 30 25 57 12 28 23 58 24 68 1 9 5 17 9 17 4 0 8 6 8 13 0 6 6
23 13 37 7 14 19 45 27 70 8 25 19 54 26 65 7 11 15 36 19 55 4 19 11 41 16
50 22 43 203 580 245 730 13 47 32 110 41 140 9 30 18 62 19 70 1 8 10 40 19
70 9 30 18 66 21 80 2 14 12 50 21 80 9 30 17 64 18 75 0 11 4 26 8 33 5 6 6
12 2 12 -3 0 -1 8 4 18 5 9 12 35 16 57 8 46 13 69 15 73 4 4 15 53 25 107 2
11 4 20 5 20 2 0 7 24 15 75 4 24 9 48 12 53 2 4 6 20 8 35 3 15 7 38 10 52 3
14 8 43 11 65 3 21 8 43 11 48 2 4 7 25 9 45 5 42 12 77 14 77 1 0 3 11 5 25
2 14 6 41 9 60 4 19 8 49 11 65 2 17 7 46 11 65 4 19 7 45 8 58 0 12 2 22 6
22 3 0 5 12 6 28 0 15 4 47 7 72 9 58 20 139 33 248 3 26 7 58 10 72 2 14 6
54 10 90 3 36 7 76 10 90 2 14 6 59 9 100 3 41 7 89 10 105 3 27 11 129 21
280 13 215 19 423 19 750 0 400 -7 634 -29 915 -14 172 -18 221 -32 350 -3 30
-7 69 -9 85 -1 17 -6 53 -9 80 -4 28 -11 86 -17 130 -18 144 -21 172 -38 280
-6 39 -13 84 -15 100 -2 17 -6 37 -9 45 -4 8 -8 35 -11 60 -2 25 -6 52 -9 60
-3 8 -8 33 -11 55 -7 46 -13 83 -22 123 -3 15 -7 38 -9 52 -2 14 -6 36 -10 50
-3 14 -8 38 -11 54 -2 16 -7 32 -9 35 -2 4 -6 25 -9 47 -4 22 -9 51 -12 64
-13 57 -25 107 -30 130 -3 14 -7 32 -9 40 -2 8 -4 15 -5 15 -1 0 -3 7 -5 15
-8 36 -16 76 -20 95 -6 31 -13 60 -15 60 -1 0 -4 11 -7 25 -6 32 -9 42 -16 60
-3 8 -8 29 -11 45 -3 17 -10 46 -16 65 -6 19 -14 49 -17 65 -3 17 -9 37 -14
46 -4 9 -11 30 -14 47 -16 95 -211 691 -305 937 -5 11 -18 47 -30 80 -25 67
-31 85 -53 135 -8 19 -18 46 -22 60 -4 14 -11 30 -15 35 -4 6 -17 35 -28 65
-11 30 -30 78 -43 105 -12 28 -23 55 -24 60 -3 10 -12 31 -133 295 -64 140
-295 603 -342 685 -30 52 -101 183 -114 212 -6 13 -14 23 -18 23 -5 0 -8 4 -8
10 0 12 -202 351 -236 397 -13 17 -24 34 -24 37 0 7 -94 155 -112 177 -22 26
-38 53 -44 72 -4 9 -10 17 -15 17 -5 0 -9 7 -9 15 0 8 -4 15 -10 15 -5 0 -10
6 -10 13 -1 6 -14 28 -30 47 -17 19 -30 40 -30 47 0 7 -4 13 -8 13 -5 0 -15
12 -23 27 -8 15 -21 35 -29 44 -8 9 -35 46 -60 82 -25 37 -48 66 -52 67 -5 0
-8 5 -8 11 0 12 -59 92 -72 97 -5 2 -8 8 -8 13 0 8 -104 146 -183 243 -18 21
-34 44 -36 50 -2 6 -10 16 -16 21 -6 6 -29 33 -51 60 -21 28 -48 58 -58 68
-10 9 -15 17 -11 17 5 0 2 6 -6 13 -9 6 -38 39 -65 72 -27 33 -53 65 -59 71
-5 6 -31 35 -57 65 -73 85 -176 201 -238 269 -8 9 -32 34 -52 57 -20 23 -39
39 -42 35 -3 -3 -6 0 -6 6 0 16 -263 285 -490 502 -58 56 -255 238 -284 263
-12 10 -68 63 -126 117 -58 53 -120 110 -138 126 -19 16 -49 44 -67 62 -18 17
-35 32 -38 32 -3 0 -20 15 -39 33 -42 40 -253 218 -373 314 -49 40 -99 80
-110 90 -11 10 -47 38 -80 63 -33 25 -61 48 -63 53 -2 4 -10 7 -17 7 -7 0 -15
3 -17 8 -3 8 -136 107 -343 257 -40 29 -177 123 -245 168 -30 20 -59 40 -65
45 -5 4 -35 23 -65 42 -30 19 -56 38 -58 42 -2 5 -12 8 -23 8 -10 0 -19 4 -19
8 0 9 -117 82 -131 82 -5 0 -9 3 -9 8 0 4 -17 16 -37 27 -21 11 -40 22 -43 25
-6 6 -24 17 -110 67 -36 21 -74 43 -85 50 -11 7 -27 15 -35 19 -8 4 -32 18
-53 31 -20 13 -68 40 -105 60 -37 20 -83 45 -102 56 -146 82 -496 257 -730
365 -36 16 -90 41 -120 55 -109 50 -325 140 -337 140 -7 0 -13 4 -13 9 0 4 -9
8 -19 8 -11 0 -22 4 -25 9 -3 5 -18 12 -33 16 -15 3 -52 17 -81 31 -29 13 -56
24 -61 24 -5 0 -26 8 -47 17 -22 9 -45 16 -51 14 -7 -1 -13 3 -13 9 0 6 -4 9
-9 5 -5 -3 -12 -1 -16 5 -3 5 -12 10 -20 10 -8 0 -26 5 -42 12 -15 6 -31 12
-35 12 -3 1 -10 4 -14 9 -4 4 -16 7 -26 7 -10 0 -26 4 -36 9 -31 16 -67 29
-107 41 -22 6 -49 15 -60 20 -18 7 -82 27 -360 114 -188 59 -651 182 -760 203
-46 8 -60 11 -60 13 0 2 -24 7 -70 15 -22 4 -43 9 -46 11 -3 2 -21 6 -40 9
-19 3 -53 10 -77 16 -23 5 -59 12 -78 15 -20 3 -46 8 -58 11 -11 2 -32 6 -46
8 -14 2 -43 8 -66 13 -22 5 -48 8 -57 6 -9 -1 -17 1 -17 5 0 4 -10 8 -22 9
-13 1 -39 4 -59 5 -20 2 -40 6 -45 9 -5 3 -31 8 -59 12 -27 3 -66 9 -85 11
-73 11 -106 16 -150 21 -87 11 -95 12 -97 14 -2 1 -13 3 -25 3 -13 1 -26 6
-30 11 -5 7 -8 6 -8 -2 0 -8 -5 -10 -12 -6 -6 4 -30 9 -52 10 -23 1 -41 3 -41
4 0 1 -16 3 -35 5 -19 2 -60 7 -90 10 -30 3 -72 7 -92 8 -21 1 -38 4 -38 7 0
3 -24 5 -53 6 -28 0 -95 4 -147 8 -52 5 -122 10 -155 12 -33 2 -96 6 -140 9
-143 10 -791 25 -798 19z"/>
</g>
</svg>
